# xmcd
#
# Track frame offsets:
#	150
#	16267
#	31427
#	49355
#	65618
#	81059
#	95506
#	114680
#	129166
#	145129
#	161627
#	176473
#
# Disc length: 2573 seconds
#
# Revision: 1
# Processed by: cddbd v1.5.2PL0 Copyright (c) Steve Scherf et al.
# Submitted via: audiograbber 1.83.01
#
DISCID=9d0a0b0c
DTITLE=еуа ликкг (BY DJ ZRAF) - амапокы йахе стицлг
DYEAR=2007
DGENRE=каийа
TTITLE0=амапокы йахе стицлг
TTITLE1=сгладиа
TTITLE2=йоййима жамаяиа
TTITLE3=евеис ауто поу соу анифеи
TTITLE4=л' евеис йамеи тяекг
TTITLE5=цуакиа йаяжиа
TTITLE6=лг лоу жеяесаи етси
TTITLE7=ока еимаи йеяаслема
TTITLE8=амебаимы
TTITLE9=еяыта лоу
TTITLE10=де се бкепы йака
TTITLE11=с' ацапы айола
EXTD=
EXTT0=
EXTT1=
EXTT2=
EXTT3=
EXTT4=
EXTT5=
EXTT6=
EXTT7=
EXTT8=
EXTT9=
EXTT10=
EXTT11=
PLAYORDER=
